# xmcd
#
# Track frame offsets: 
#        150
#        16427
#        39834
#        56764
#        83016
#        108410
#        129314
#        153445
#        172718
#        186588
#        213665
#        235265
#
# Disc length: 3450 seconds
#
# Revision: 3
# Processed by: cddbd v1.5.2PL0 Copyright (c) Steve Scherf et al.
# Submitted via: ExactAudioCopy v0.99pb4
#
DISCID=970d780c
DTITLE=Various Artist - Comfort Jazz CD1 - acousticsession
DYEAR=2003
DGENRE=Jazz
TTITLE0=EDDIE HENDERSON - Someday My Prince Will Come
TTITLE1=JUDY NIEMACK - Tomorrow's Another Day
TTITLE2=MARTIN TAYLOR - I Get Along Without You Very Well
TTITLE3=NILS WÜLKER - Here's To Life
TTITLE4=RAVI COLTRANE - Ask Me Now
TTITLE5=ROY HAYNES - That Old Feeling
TTITLE6=CLARK TERRY and MAX ROACH - I Remember Clifford
TTITLE7=JANE MONHEIT - Chega De Saudade (No More Blues)
TTITLE8=KLAZZBROTHERS and CUBAPERCUSSION - Summertime
TTITLE9=STANLEY TURRENTINE and MILT JACKSON - I Remember You
TTITLE10=MARK ISHAM - And Miles Go ... Before He Sleeps
TTITLE11=NILS WÜLKER - Deep Field
EXTD=YEAR: 2003
EXTT0=
EXTT1=
EXTT2=
EXTT3=
EXTT4=
EXTT5=
EXTT6=
EXTT7=
EXTT8=
EXTT9=
EXTT10=
EXTT11=
PLAYORDER=
